<?xml version="1.0" standalone="no"?>
<!DOCTYPE svg PUBLIC "-//W3C//DTD SVG 20010904//EN"
 "http://www.w3.org/TR/2001/REC-SVG-20010904/DTD/svg10.dtd">
<svg version="1.0" xmlns="http://www.w3.org/2000/svg"
 width="612.000000pt" height="612.000000pt" viewBox="0 0 612.000000 612.000000"
 preserveAspectRatio="xMidYMid meet">
<metadata>
Created by potrace 1.14, written by Peter Selinger 2001-2017
</metadata>
<g transform="translate(0.000000,612.000000) scale(0.100000,-0.100000)"
fill="#000000" stroke="none">
<path d="M3300 4481 c0 -6 -7 -8 -15 -5 -8 4 -15 1 -15 -6 0 -6 -5 -8 -11 -5
-6 4 -9 0 -7 -11 2 -13 -3 -19 -17 -19 -11 -1 -19 -6 -18 -12 2 -7 -6 -10 -18
-8 -15 3 -19 0 -15 -11 3 -8 1 -12 -4 -9 -5 3 -17 0 -25 -7 -9 -7 -21 -18 -28
-23 -21 -18 -68 -35 -78 -30 -5 4 -9 2 -9 -3 0 -4 -8 -17 -17 -28 -10 -10 -19
-28 -21 -39 -2 -11 -11 -26 -20 -32 -9 -7 -12 -13 -6 -13 5 0 -6 -8 -23 -16
-18 -9 -30 -20 -27 -25 3 -5 0 -9 -7 -9 -7 0 -10 -3 -6 -6 3 -4 0 -13 -8 -21
-8 -8 -16 -24 -17 -36 -1 -21 -4 -36 -8 -47 -7 -22 -12 -94 -13 -202 0 -70 -3
-126 -5 -123 -7 7 -27 -18 -40 -50 -16 -40 -22 -104 -10 -111 5 -3 7 -12 4
-20 -3 -7 0 -16 5 -20 6 -3 9 -15 6 -25 -3 -11 -1 -19 5 -19 6 0 8 -6 5 -13
-3 -8 -1 -20 3 -28 5 -8 4 -19 -2 -26 -6 -8 -6 -13 -1 -13 11 0 13 -12 13
-105 0 -43 5 -72 13 -77 9 -6 9 -8 0 -8 -6 0 -10 -9 -8 -19 3 -17 -10 -27 -46
-35 -10 -2 -61 -66 -53 -66 4 0 3 -5 -4 -12 -7 -7 -12 -20 -12 -30 0 -25 -47
-52 -86 -50 -19 2 -34 -1 -34 -6 0 -4 -12 -9 -27 -10 -16 -1 -30 -7 -31 -12
-2 -6 -7 -8 -11 -6 -4 3 -21 -7 -38 -22 -17 -15 -37 -28 -44 -30 -8 -2 -18
-10 -22 -18 -4 -8 -13 -14 -20 -14 -7 0 -24 -11 -40 -24 -15 -13 -43 -34 -62
-47 -19 -13 -35 -27 -35 -31 0 -5 -6 -8 -13 -8 -7 0 -19 -9 -27 -19 -7 -11
-17 -18 -22 -15 -4 3 -11 -2 -14 -10 -3 -9 -13 -16 -22 -16 -8 0 -12 -3 -9 -6
4 -4 -14 -21 -38 -39 -25 -17 -42 -35 -38 -38 3 -4 1 -7 -6 -7 -6 0 -23 -11
-37 -25 -14 -14 -29 -25 -35 -25 -6 0 -7 -4 -4 -10 3 -5 -2 -10 -11 -10 -10 0
-15 -3 -11 -6 8 -8 -16 -33 -25 -27 -5 2 -8 -1 -8 -7 0 -7 -16 -31 -35 -54
-19 -24 -35 -48 -35 -55 0 -7 -5 -9 -12 -5 -7 4 -8 3 -4 -4 4 -6 -2 -20 -14
-32 -12 -12 -15 -20 -8 -20 9 0 9 -3 2 -8 -10 -7 -37 -92 -37 -118 0 -8 -3
-14 -7 -14 -8 0 -9 -5 -13 -122 -2 -54 0 -98 3 -98 7 0 2 -137 -5 -157 -2 -7
1 -13 8 -13 7 0 8 -3 2 -8 -5 -4 -11 -43 -11 -87 -3 -115 -6 -155 -15 -155 -4
0 -7 -24 -7 -53 1 -28 -2 -81 -6 -117 -5 -36 -9 -75 -10 -87 0 -13 -3 -23 -6
-23 -3 0 -6 -9 -6 -20 0 -11 3 -20 6 -20 3 0 6 -9 6 -20 0 -11 -4 -20 -9 -20
-5 0 -4 -6 2 -14 7 -9 11 -41 10 -78 -1 -35 -1 -71 0 -81 1 -16 56 -17 1049
-15 845 3 1046 5 1044 16 -1 7 -5 29 -8 50 -8 46 -12 67 -14 67 -2 0 -9 35
-14 80 -5 39 -9 59 -22 108 -3 12 -7 34 -8 48 -2 15 -6 31 -9 36 -6 9 -18 78
-20 111 0 6 -4 12 -8 12 -4 0 -6 9 -4 20 2 11 -1 22 -6 25 -5 4 -7 11 -3 16 3
6 1 31 -5 57 -6 26 -12 58 -14 72 -1 14 -6 31 -11 39 -7 10 -5 12 3 6 10 -6
11 -3 3 11 -6 11 -12 33 -15 51 -3 17 -8 37 -13 44 -5 8 -3 9 6 4 9 -6 11 -4
5 5 -4 7 -9 65 -9 129 -1 64 -4 121 -7 126 -3 6 -4 20 -3 33 0 12 -3 22 -8 22
-5 0 -8 6 -5 13 2 6 -4 35 -14 64 -9 28 -15 54 -12 57 4 3 1 6 -6 6 -8 0 -11
7 -7 15 3 9 0 18 -8 21 -7 3 -13 11 -14 19 -1 8 -3 22 -4 30 -1 8 -7 16 -14
19 -8 3 -11 12 -8 20 3 9 -5 26 -19 40 -14 14 -23 26 -21 28 2 2 -20 16 -50
31 -52 27 -99 67 -78 67 6 0 9 7 6 15 -4 8 -1 15 5 15 6 0 10 3 9 8 -2 11 14
66 22 72 3 3 14 27 24 54 10 27 27 57 37 67 9 9 14 21 11 25 -4 4 1 4 10 1 11
-4 21 0 26 9 5 9 11 16 13 15 13 -2 49 13 49 20 0 5 5 9 10 9 22 0 150 125
150 146 0 8 5 14 10 14 6 0 10 7 10 15 0 8 5 15 11 15 5 0 7 5 4 10 -3 6 -1
10 5 10 6 0 8 5 5 10 -3 6 -2 10 2 10 5 0 10 12 11 26 1 15 8 34 15 42 8 11 8
14 0 9 -14 -9 16 55 31 65 6 4 7 8 2 8 -6 0 -1 6 9 14 11 8 23 12 27 10 4 -3
10 7 14 21 10 39 10 126 1 132 -5 3 -1 13 7 22 9 10 13 21 9 26 -5 4 1 5 11 1
17 -6 17 -5 5 11 -8 9 -9 14 -3 10 15 -8 67 40 59 53 -4 6 -1 17 5 25 10 12
10 15 -1 15 -9 0 -10 3 -3 8 6 4 10 31 10 59 -1 29 2 53 5 53 4 0 5 14 3 31
-3 22 0 28 9 23 9 -6 9 -4 1 7 -6 8 -10 33 -9 57 1 23 -2 42 -7 42 -5 0 -6 5
-3 10 4 6 1 18 -7 27 -9 12 -9 15 0 9 6 -4 12 -3 12 2 0 6 -7 12 -15 16 -8 3
-12 12 -9 21 3 8 2 15 -3 15 -5 0 -10 7 -11 15 -1 8 -3 22 -4 30 -1 8 -4 15
-8 15 -4 0 -7 7 -8 15 -1 8 -3 22 -4 30 -1 8 -5 15 -10 15 -4 0 -8 7 -8 16 0
8 -3 13 -7 11 -5 -3 -14 1 -21 9 -10 11 -10 14 0 14 7 0 4 6 -7 12 -11 6 -34
26 -51 44 -18 19 -35 34 -39 34 -3 0 -13 6 -20 13 -35 30 -50 42 -55 41 -13
-2 -79 33 -73 39 3 4 -1 7 -10 7 -9 0 -17 5 -17 11 0 16 -61 37 -105 35 -22
-1 -50 2 -62 6 -16 5 -23 4 -23 -5 0 -9 -2 -9 -8 0 -4 6 -23 11 -42 11 -55 -1
-62 1 -54 15 5 9 4 9 -6 0 -10 -9 -18 -9 -34 -1 -19 10 -20 10 -7 -5 17 -21 8
-22 -13 -1 -9 8 -16 11 -16 5z"/>
<path d="M3187 4463 c3 -7 8 -13 12 -14 3 0 14 -2 23 -4 10 -2 15 2 12 10 -3
7 -16 15 -29 17 -16 4 -22 1 -18 -9z"/>
</g>
</svg>
